<?xml version="1.0" standalone="no"?>
<!DOCTYPE svg PUBLIC "-//W3C//DTD SVG 20010904//EN"
 "http://www.w3.org/TR/2001/REC-SVG-20010904/DTD/svg10.dtd">
<svg version="1.0" xmlns="http://www.w3.org/2000/svg"
 width="200.000000pt" height="200.000000pt" viewBox="0 0 200.000000 200.000000"
 preserveAspectRatio="xMidYMid meet">
<metadata>
Created by potrace 1.10, written by Peter Selinger 2001-2011
</metadata>
<g transform="translate(0.000000,200.000000) scale(0.100000,-0.100000)"
fill="#a3cef1" stroke="none">
<path d="M1312 1363 c-1 -73 -4 -133 -7 -133 -3 0 -20 13 -38 29 -79 71 -156
131 -159 123 -4 -11 -125 -102 -135 -102 -4 1 -18 9 -30 19 -20 17 -23 30 -25
98 l-2 78 -3 -72 c-2 -40 -7 -73 -12 -73 -4 0 -56 -36 -115 -81 l-108 -81
-122 0 c-66 0 -148 -3 -181 -7 -46 -6 -17 -9 123 -10 l182 -1 0 -85 0 -85
-182 -3 -183 -2 185 -3 185 -2 -3 -101 c-2 -63 1 -106 7 -112 8 -8 11 21 11
101 l0 112 105 0 104 0 4 -92 3 -93 2 93 2 92 80 0 79 0 4 -122 3 -123 2 123
2 122 110 0 109 0 4 -87 3 -88 2 87 2 87 158 4 157 3 -157 2 -158 2 0 33 0 32
214 -1 c117 -1 220 2 227 7 8 5 -82 9 -213 9 l-228 0 -3 218 c-1 141 -3 171
-5 85z m-111 -65 c74 -60 98 -87 63 -74 -9 3 -51 6 -94 6 l-78 0 -4 56 c-3 52
4 74 25 74 5 0 45 -28 88 -62z m-121 -18 c0 -48 -1 -50 -27 -50 -14 0 -35 8
-45 17 -19 17 -18 18 19 50 21 18 41 32 46 33 4 0 7 -22 7 -50z m-172 -12 l-3
-43 -51 3 c-33 2 -55 -1 -59 -9 -6 -9 2 -10 31 -4 21 4 36 4 33 1 -7 -7 -142
-46 -146 -42 -3 3 181 136 190 136 4 0 7 -19 5 -42z m36 13 c17 -19 17 -20 -3
-31 -19 -10 -21 -8 -21 20 0 35 1 36 24 11z m40 -37 c25 -10 19 -19 -14 -19
-31 0 -40 9 -17 18 6 3 13 6 14 6 1 1 8 -2 17 -5z m-74 -53 c0 -17 -9 -20 -74
-23 -41 -2 -72 -1 -70 2 4 3 110 34 137 39 4 0 7 -8 7 -18z m143 -4 l28 -22
-80 3 c-72 3 -81 6 -81 23 0 29 95 27 133 -4z m27 13 c0 -5 -7 -7 -15 -4 -8 4
-15 8 -15 10 0 2 7 4 15 4 8 0 15 -4 15 -10z m228 -13 c-3 -15 -15 -18 -83
-21 l-80 -3 55 17 c67 22 36 25 -40 5 -70 -19 -70 -19 -70 6 0 20 4 20 110 17
100 -3 110 -5 108 -21z m-400 -83 l-3 -47 -98 2 c-75 2 -97 -1 -92 -10 6 -8
30 -10 83 -5 41 3 73 4 70 1 -6 -6 -148 -55 -160 -55 -4 0 -8 36 -8 80 l0 80
106 0 105 0 -3 -46z m172 1 l0 -45 -80 0 -80 0 0 45 0 45 80 0 80 0 0 -45z
m228 0 l0 -45 -106 0 -107 0 0 45 0 45 106 0 106 0 1 -45z m-398 -95 l0 -30
-82 1 c-46 0 -76 3 -68 7 24 10 134 49 143 51 4 0 7 -12 7 -29z m170 0 l0 -30
-80 0 -80 0 0 30 0 30 80 0 80 0 0 -30z m230 -2 l0 -28 -80 0 c-44 0 -80 2
-80 4 0 3 26 12 58 22 31 10 50 19 41 21 -9 2 -44 -5 -78 -16 -76 -26 -78 -26
-78 5 l0 25 108 -2 109 -3 0 -28z"/>
<path d="M681 1294 c-2 -73 1 -104 8 -99 13 7 15 191 3 199 -5 3 -10 -42 -11
-100z"/>
<path d="M465 1220 c3 -6 50 -10 106 -10 59 0 99 4 99 10 0 6 -42 10 -106 10
-67 0 -103 -4 -99 -10z"/>
<path d="M1330 1220 c0 -6 63 -10 170 -10 107 0 170 4 170 10 0 6 -63 10 -170
10 -107 0 -170 -4 -170 -10z"/>
<path d="M1335 1161 c-4 -8 41 -11 147 -10 176 1 163 14 -19 18 -78 1 -123 -2
-128 -8z"/>
<path d="M503 1053 c11 -11 156 -13 162 -2 4 5 -29 9 -81 9 -48 0 -84 -3 -81
-7z"/>
<path d="M100 689 c0 -7 15 -10 40 -7 l40 4 0 -73 c0 -39 5 -75 10 -78 6 -4
10 22 10 69 l0 76 45 0 c25 0 45 5 45 10 0 6 -38 10 -95 10 -63 0 -95 -4 -95
-11z"/>
<path d="M310 620 c0 -47 4 -80 10 -80 6 0 10 20 10 45 0 40 3 47 27 56 57 21
93 -12 81 -76 -4 -17 -1 -25 8 -25 10 0 14 13 14 41 0 62 -13 79 -63 79 -24 0
-48 -5 -55 -12 -9 -9 -12 -5 -12 20 0 18 -4 32 -10 32 -6 0 -10 -33 -10 -80z"/>
<path d="M660 690 c0 -5 5 -10 10 -10 6 0 10 5 10 10 0 6 -4 10 -10 10 -5 0
-10 -4 -10 -10z"/>
<path d="M1100 605 c0 -43 4 -75 10 -75 6 0 10 14 10 30 l0 30 64 0 c66 0 83
-11 70 -45 -4 -9 0 -15 10 -15 17 0 19 13 7 45 -5 11 -4 28 1 38 5 11 7 30 4
43 -6 23 -10 24 -91 24 l-85 0 0 -75z m158 33 c3 -26 2 -26 -67 -30 l-71 -3 0
33 0 33 68 -3 c64 -3 67 -4 70 -30z"/>
<path d="M500 650 c-21 -13 -5 -23 18 -11 29 15 58 14 76 -5 25 -25 19 -36
-14 -29 -71 16 -123 -23 -78 -58 16 -14 32 -17 58 -13 19 4 43 6 54 7 16 0 18
6 14 51 -3 27 -12 54 -19 59 -18 12 -90 11 -109 -1z m105 -80 c0 -11 -13 -16
-44 -18 -45 -3 -68 8 -56 28 11 17 100 9 100 -10z"/>
<path d="M660 601 c0 -33 5 -63 10 -66 6 -4 10 18 10 59 0 37 -4 66 -10 66 -6
0 -10 -26 -10 -59z"/>
<path d="M727 653 c-13 -12 -7 -51 9 -57 9 -3 36 -6 61 -6 37 0 44 -3 41 -17
-4 -21 -74 -31 -91 -14 -6 6 -17 11 -25 11 -12 0 -12 -3 -2 -15 27 -33 132
-26 138 9 6 30 -18 46 -69 46 -37 0 -49 4 -49 15 0 21 48 30 84 17 32 -12 42
-10 31 7 -7 12 -117 15 -128 4z"/>
<path d="M1322 634 c-25 -17 -31 -71 -10 -92 17 -17 103 -15 118 3 10 12 10
15 -4 15 -9 0 -16 -4 -16 -10 0 -11 -49 -14 -74 -4 -9 3 -16 12 -16 20 0 10
15 14 60 14 66 0 77 13 40 50 -24 24 -67 26 -98 4z m88 -19 c7 -8 11 -15 9
-16 -65 -11 -114 2 -92 24 12 13 71 7 83 -8z"/>
<path d="M1450 643 c0 -5 15 -33 34 -65 35 -58 36 -68 4 -68 -10 0 -18 -5 -18
-11 0 -6 10 -9 23 -7 16 2 32 22 59 73 39 74 43 85 29 85 -4 0 -19 -24 -33
-54 l-24 -55 -27 55 c-23 47 -47 71 -47 47z"/>
<path d="M1620 630 c-22 -22 -26 -51 -10 -81 9 -15 22 -19 65 -19 29 0 57 5
60 11 10 16 -4 24 -17 11 -24 -24 -98 -9 -98 20 0 4 27 8 60 8 53 0 60 2 60
19 0 46 -84 67 -120 31z m98 -20 c2 -12 -8 -15 -43 -14 -25 1 -45 4 -45 8 0 3
0 11 0 17 0 17 84 7 88 -11z"/>
<path d="M1776 634 c-32 -32 -9 -54 57 -54 41 0 48 -3 45 -17 -2 -13 -15 -19
-46 -21 -25 -2 -42 1 -42 7 0 6 -7 11 -16 11 -14 0 -14 -3 -4 -15 18 -22 118
-21 127 1 11 29 -12 49 -61 54 -25 3 -48 10 -49 15 -3 15 85 19 94 3 4 -7 12
-9 16 -4 14 13 -29 36 -68 36 -21 0 -45 -7 -53 -16z"/>
</g>
</svg>
