<?xml version="1.0" standalone="no"?>
<!DOCTYPE svg PUBLIC "-//W3C//DTD SVG 20010904//EN"
 "http://www.w3.org/TR/2001/REC-SVG-20010904/DTD/svg10.dtd">
<svg version="1.0" xmlns="http://www.w3.org/2000/svg"
 width="200.000000pt" height="200.000000pt" viewBox="0 0 200.000000 200.000000"
 preserveAspectRatio="xMidYMid meet">
<metadata>
Created by potrace 1.10, written by Peter Selinger 2001-2011
</metadata>
<g transform="translate(0.000000,200.000000) scale(0.100000,-0.100000)"
fill="#a9a9a9" stroke="none">
<path d="M900 1402 l0 -62 -73 -55 c-53 -39 -83 -55 -105 -55 l-31 0 -4 93 -3
92 -2 -92 -2 -93 -137 -1 c-76 0 -129 -4 -118 -8 11 -4 73 -7 137 -7 l118 1 0
-115 0 -115 -134 2 c-73 1 -153 -1 -177 -6 -32 -6 4 -9 133 -10 l177 -1 4
-122 3 -123 2 123 2 122 193 0 192 0 -1 -102 c-1 -57 2 -112 6 -123 5 -12 9
28 9 103 l1 122 273 1 c149 1 259 5 242 8 -16 4 -87 7 -157 7 -126 -1 -128 -1
-128 22 0 12 -4 22 -10 22 -5 0 -10 -10 -10 -22 0 -22 -4 -23 -80 -24 -44 0
-79 1 -77 2 1 1 38 15 82 30 77 28 90 29 315 34 l235 6 -227 2 -228 2 0 78 0
77 127 -3 c71 -1 160 1 198 6 58 8 34 10 -145 11 -118 1 -273 2 -345 1 -110 0
-134 3 -153 18 l-22 17 69 52 c39 29 72 49 75 44 11 -17 147 -124 152 -119 2
3 -33 37 -78 75 l-83 70 -72 -55 -73 -54 -36 27 c-25 19 -32 30 -24 35 9 5 11
24 7 60 -8 73 -17 75 -17 2z m49 -134 c2 -21 -50 -39 -105 -36 l-58 3 55 41
54 41 27 -21 c15 -12 27 -24 27 -28z m50 -35 c2 -2 -10 -3 -29 -3 -28 0 -31 2
-20 15 10 12 16 13 29 3 9 -7 18 -14 20 -15z m-152 -19 c-6 -6 -137 -42 -137
-38 0 2 16 14 34 27 26 17 45 22 71 19 20 -2 34 -6 32 -8z m-132 -14 c-20 -22
-31 -20 -22 5 4 8 14 15 23 15 16 0 16 -2 -1 -20z m185 -10 c0 -18 -6 -20 -72
-19 l-73 0 65 18 c36 10 68 19 73 20 4 0 7 -8 7 -19z m147 0 l26 -20 -77 0
c-69 0 -76 2 -76 20 0 17 7 20 51 20 36 0 58 -6 76 -20z m123 0 c-73 -18 -96
-18 -85 1 3 5 0 6 -8 3 -8 -3 -18 -1 -22 5 -4 8 25 11 92 10 l98 0 -75 -19z
m130 -55 l0 -75 -105 0 -105 0 0 48 0 49 100 -5 c77 -4 100 -2 100 8 0 10 -18
12 -77 8 -43 -3 -73 -4 -66 -1 15 5 136 40 146 42 4 0 7 -33 7 -74z m-400 -30
l0 -45 -105 0 -105 0 0 45 0 45 105 0 105 0 0 -45z m175 0 l0 -45 -77 0 -78 0
0 45 0 45 78 0 77 0 0 -45z m-285 -86 c-46 -16 -88 -29 -92 -29 -4 0 -8 14 -8
30 l0 30 93 -1 92 -1 -85 -29z m467 24 c-7 -7 -145 -53 -159 -53 -5 0 -8 11
-8 25 0 23 3 24 78 28 42 1 81 4 86 5 5 1 6 -1 3 -5z m-357 -27 c0 -22 -4 -24
-77 -29 -43 -2 -79 -3 -81 -2 -2 1 32 14 75 28 43 14 79 25 81 26 1 1 2 -10 2
-23z m174 -3 c0 -16 -4 -27 -7 -25 -4 1 -40 2 -79 2 -71 0 -73 1 -73 25 0 25
1 25 80 25 l81 0 -2 -27z"/>
<path d="M901 1271 c-1 -27 2 -32 11 -23 8 8 8 17 0 34 -10 22 -11 21 -11 -11z"/>
<path d="M1300 1350 c0 -67 4 -110 10 -110 6 0 10 43 10 110 0 67 -4 110 -10
110 -6 0 -10 -43 -10 -110z"/>
<path d="M1076 1314 c-9 -24 -7 -62 4 -69 6 -4 10 12 10 39 0 48 -4 56 -14 30z"/>
<path d="M370 1160 c0 -6 55 -10 144 -10 86 0 147 4 151 10 4 6 -47 10 -144
10 -94 0 -151 -4 -151 -10z"/>
<path d="M1330 1160 c0 -6 48 -10 125 -10 77 0 125 4 125 10 0 6 -48 10 -125
10 -77 0 -125 -4 -125 -10z"/>
<path d="M518 1053 c28 -2 76 -2 105 0 28 2 5 3 -53 3 -58 0 -81 -1 -52 -3z"/>
<path d="M900 878 c0 -48 4 -77 9 -70 12 20 14 139 1 147 -7 4 -10 -21 -10
-77z"/>
<path d="M1300 895 c0 -37 4 -65 10 -65 6 0 10 28 10 65 0 37 -4 65 -10 65 -6
0 -10 -28 -10 -65z"/>
<path d="M100 690 c0 -5 18 -10 40 -10 l40 0 0 -75 c0 -43 4 -75 10 -75 6 0
10 32 10 75 l0 75 45 0 c25 0 45 5 45 10 0 6 -38 10 -95 10 -57 0 -95 -4 -95
-10z"/>
<path d="M310 615 c0 -89 19 -123 21 -37 1 26 2 64 3 84 1 25 -3 38 -11 38
-10 0 -13 -24 -13 -85z"/>
<path d="M660 690 c0 -5 5 -10 10 -10 6 0 10 5 10 10 0 6 -4 10 -10 10 -5 0
-10 -4 -10 -10z"/>
<path d="M1100 599 c0 -51 4 -78 10 -74 6 3 10 19 10 36 0 29 0 29 59 29 61 0
76 -8 76 -42 0 -21 20 -19 21 2 0 8 -3 23 -8 32 -5 10 -4 19 2 23 14 9 13 48
-2 63 -7 7 -43 12 -90 12 l-78 0 0 -81z m129 65 c24 -5 31 -12 31 -29 0 -25
-30 -35 -101 -35 -38 0 -39 1 -39 35 0 34 1 35 39 35 21 0 53 -3 70 -6z"/>
<path d="M345 650 c-4 -6 11 -10 39 -10 50 0 60 -14 54 -72 -2 -19 2 -33 10
-35 8 -3 12 9 12 42 0 69 -12 85 -65 85 -24 0 -47 -4 -50 -10z"/>
<path d="M500 645 c-7 -9 -9 -19 -5 -23 4 -4 10 -1 12 6 7 19 89 16 97 -4 11
-29 6 -32 -28 -22 -35 11 -85 -4 -93 -28 -11 -35 86 -61 115 -32 9 9 12 9 12
0 0 -7 5 -12 10 -12 16 0 12 83 -6 108 -12 17 -25 22 -58 22 -27 0 -48 -6 -56
-15z m99 -64 c24 -15 1 -31 -44 -31 -44 0 -62 11 -50 30 8 12 75 13 94 1z"/>
<path d="M660 595 c0 -37 4 -65 10 -65 6 0 10 28 10 65 0 37 -4 65 -10 65 -6
0 -10 -28 -10 -65z"/>
<path d="M732 651 c-8 -4 -12 -19 -10 -32 3 -21 9 -25 58 -29 40 -4 55 -9 55
-20 0 -11 -13 -16 -47 -18 -29 -2 -48 1 -48 7 0 6 -8 11 -17 11 -15 -1 -14 -4
6 -20 40 -34 131 -21 131 18 0 30 -21 42 -72 42 -36 0 -48 4 -48 15 0 11 12
15 50 15 28 0 50 -4 50 -10 0 -5 5 -10 10 -10 16 0 11 27 -6 34 -23 9 -97 7
-112 -3z"/>
<path d="M1322 634 c-27 -19 -30 -75 -5 -95 22 -19 101 -18 113 1 12 19 4 26
-14 11 -22 -18 -90 -10 -94 12 -3 15 5 17 57 17 67 0 78 13 41 50 -24 24 -67
26 -98 4z m86 -16 c22 -22 13 -28 -38 -28 -35 0 -50 4 -50 13 0 8 3 17 7 20
11 12 68 8 81 -5z"/>
<path d="M1450 643 c0 -5 14 -32 30 -62 35 -64 36 -71 10 -71 -11 0 -20 -4
-20 -10 0 -16 36 -11 52 8 17 18 68 120 68 134 0 24 -20 1 -42 -48 l-26 -56
-25 56 c-14 31 -31 56 -36 56 -6 0 -11 -3 -11 -7z"/>
<path d="M1633 640 c-25 -10 -39 -60 -24 -89 6 -11 26 -23 44 -26 35 -7 87 8
87 25 0 13 -17 13 -25 0 -9 -14 -68 -13 -83 2 -22 22 -12 28 48 28 53 0 60 2
60 19 0 39 -57 61 -107 41z m71 -16 c9 -3 16 -12 16 -20 0 -10 -14 -14 -50
-14 -51 0 -60 6 -38 28 13 13 47 16 72 6z"/>
<path d="M1788 643 c-22 -6 -31 -32 -17 -49 6 -7 32 -14 57 -16 34 -2 47 -7
47 -18 0 -10 -13 -16 -42 -18 -26 -2 -43 1 -43 7 0 6 -8 11 -17 11 -16 0 -16
-1 0 -17 12 -13 31 -17 62 -16 53 2 65 8 65 33 0 25 -29 40 -80 40 -29 0 -40
4 -38 13 6 16 76 21 94 6 8 -6 18 -9 22 -5 4 4 -2 14 -12 22 -19 13 -62 17
-98 7z"/>
</g>
</svg>
